<?xml version="1.0" standalone="no"?>
<!DOCTYPE svg PUBLIC "-//W3C//DTD SVG 20010904//EN"
 "http://www.w3.org/TR/2001/REC-SVG-20010904/DTD/svg10.dtd">
<svg version="1.0" xmlns="http://www.w3.org/2000/svg"
 width="1137.000000pt" height="1047.000000pt" viewBox="0 0 1137.000000 1047.000000"
 preserveAspectRatio="xMidYMid meet">

<g transform="translate(0.000000,1047.000000) scale(0.100000,-0.100000)"
fill="#000000" stroke="none">
<path d="M190 9025 l0 -1285 5500 0 5500 0 0 1285 0 1285 -5500 0 -5500 0 0
-1285z m10770 0 l0 -1055 -5270 0 -5270 0 0 1055 0 1055 5270 0 5270 0 0
-1055z"/>
<path d="M180 5325 l0 -1285 5505 0 5505 0 0 1285 0 1285 -5505 0 -5505 0 0
-1285z m10780 0 l0 -1055 -5275 0 -5275 0 0 1055 0 1055 5275 0 5275 0 0
-1055z"/>
<path d="M160 1455 l0 -1295 5505 0 5505 0 0 1295 0 1295 -5505 0 -5505 0 0
-1295z m10780 0 l0 -1065 -5275 0 -5275 0 0 1065 0 1065 5275 0 5275 0 0
-1065z"/>
</g>
</svg>
