<?xml version="1.0" standalone="no"?>
<!DOCTYPE svg PUBLIC "-//W3C//DTD SVG 20010904//EN"
 "http://www.w3.org/TR/2001/REC-SVG-20010904/DTD/svg10.dtd">
<svg version="1.0" xmlns="http://www.w3.org/2000/svg"
 width="363.000000pt" height="343.000000pt" viewBox="0 0 363.000000 343.000000"
 preserveAspectRatio="xMidYMid meet">

<g transform="translate(0.000000,343.000000) scale(0.100000,-0.100000)"
fill="#000000" stroke="none">
<path d="M60 2650 l0 -700 745 0 745 0 0 700 0 700 -745 0 -745 0 0 -700z
m1410 0 l0 -620 -665 0 -665 0 0 620 0 620 665 0 665 0 0 -620z"/>
<path d="M2090 2650 l0 -700 745 0 745 0 0 700 0 700 -745 0 -745 0 0 -700z
m1410 0 l0 -620 -665 0 -665 0 0 620 0 620 665 0 665 0 0 -620z"/>
<path d="M2080 770 l0 -700 745 0 745 0 0 700 0 700 -745 0 -745 0 0 -700z
m1410 0 l0 -620 -665 0 -665 0 0 620 0 620 665 0 665 0 0 -620z"/>
<path d="M50 760 l0 -700 745 0 745 0 0 700 0 700 -745 0 -745 0 0 -700z
m1410 0 l0 -620 -665 0 -665 0 0 620 0 620 665 0 665 0 0 -620z"/>
</g>
</svg>
