<?xml version="1.0" standalone="no"?>
<!DOCTYPE svg PUBLIC "-//W3C//DTD SVG 20010904//EN"
 "http://www.w3.org/TR/2001/REC-SVG-20010904/DTD/svg10.dtd">
<svg version="1.0" xmlns="http://www.w3.org/2000/svg"
 width="433.000000pt" height="360.000000pt" viewBox="0 0 433.000000 360.000000"
 preserveAspectRatio="xMidYMid meet">

<g transform="translate(0.000000,360.000000) scale(0.100000,-0.100000)"
fill="#000000" stroke="none">
<path d="M1490 3195 l0 -345 1395 0 1395 0 0 345 0 345 -1395 0 -1395 0 0
-345z m2710 0 l0 -265 -1315 0 -1315 0 0 265 0 265 1315 0 1315 0 0 -265z"/>
<path d="M70 3185 l0 -345 370 0 370 0 0 345 0 345 -370 0 -370 0 0 -345z
m660 0 l0 -265 -290 0 -290 0 0 265 0 265 290 0 290 0 0 -265z"/>
<path d="M1480 1810 l0 -340 1395 0 1395 0 0 340 0 340 -1395 0 -1395 0 0
-340z m2710 0 l0 -260 -1315 0 -1315 0 0 260 0 260 1315 0 1315 0 0 -260z"/>
<path d="M70 1800 l0 -340 370 0 370 0 0 340 0 340 -370 0 -370 0 0 -340z
m660 0 l0 -260 -290 0 -290 0 0 260 0 260 290 0 290 0 0 -260z"/>
<path d="M1470 400 l0 -340 1395 0 1395 0 0 340 0 340 -1395 0 -1395 0 0 -340z
m2710 0 l0 -260 -1315 0 -1315 0 0 260 0 260 1315 0 1315 0 0 -260z"/>
<path d="M50 380 l0 -340 370 0 370 0 0 340 0 340 -370 0 -370 0 0 -340z m660
0 l0 -260 -290 0 -290 0 0 260 0 260 290 0 290 0 0 -260z"/>
</g>
</svg>
